<?xml version="1.0" encoding="UTF-8"?>
<svg width="128" height="128" viewBox="0 0 128 128" xmlns="http://www.w3.org/2000/svg">
  <defs>
    <linearGradient id="g" x1="0" x2="0" y1="0" y2="1">
      <stop offset="0" stop-color="#ffffff" stop-opacity="1"/>
      <stop offset="1" stop-color="#e6e6e6" stop-opacity="1"/>
    </linearGradient>
    <filter id="shadow" x="-20%" y="-20%" width="140%" height="140%">
      <feOffset dx="0" dy="2"/>
      <feGaussianBlur stdDeviation="2" result="b"/>
      <feColorMatrix type="matrix" values="0 0 0 0 0   0 0 0 0 0   0 0 0 0 0   0 0 0 .35 0"/>
      <feBlend in="SourceGraphic" in2="b" mode="normal"/>
    </filter>
  </defs>
  <g filter="url(#shadow)">
    <path d="M58 16c4 0 6 3 6 6v24h4V22c0-3 2-6 6-6s6 3 6 6v24h4V26c0-3 2-6 6-6s6 3 6 6v30l8 8c6 6 6 16 0 22l-18 18c-5 5-12 8-19 8H52c-9 0-17-6-19-14l-7-26c-1-5 2-10 7-11 4-1 8 1 10 5l3 6V46c0-3 2-6 6-6s6 3 6 6v6h4V22c0-3 2-6 6-6z" fill="url(#g)" stroke="#404040" stroke-width="3"/>
  </g>
</svg>